<svg width="62" height="44" viewBox="0 0 62 44" fill="none" xmlns="http://www.w3.org/2000/svg">
<path d="M18.1318 24.972L11.6414 26.9998C11.0884 27.1757 10.5849 27.2619 10.1939 27.2475C9.80298 27.2332 9.54196 27.1189 9.44357 26.9191C9.34518 26.7192 9.41379 26.4427 9.64081 26.1241C9.86783 25.8055 10.2432 25.459 10.7198 25.128L16.2848 21.2205C21.2023 17.7754 24.7276 14.1667 26.1664 11.1053L28.1025 6.93348C28.7179 5.60681 32.0694 3.95678 33.4961 4.27804L37.8469 5.25345C41.2354 5.99961 46.417 5.35527 52.3203 3.45365L59.21 1.24639C59.7739 1.0622 60.2896 0.969796 60.6905 0.981114C61.0914 0.992432 61.3591 1.10696 61.459 1.30988C61.5589 1.51281 61.4864 1.79482 61.2509 2.11946C61.0154 2.4441 60.6277 2.79646 60.1379 3.13101L54.1876 7.24645C49.0806 10.7655 45.4102 14.4792 43.9352 17.6198L42.0551 21.6628C41.4397 22.9895 38.0882 24.6395 36.6615 24.3183L32.1745 23.3087C28.8707 22.5821 23.8609 23.1755 18.1318 24.972ZM3.43838 43.0736L1.61425 43.6423C1.31802 43.7367 1.04821 43.7831 0.838691 43.7755C0.629168 43.768 0.48928 43.7068 0.436592 43.5998C0.383903 43.4928 0.420762 43.3446 0.542542 43.174C0.664323 43.0033 0.865588 42.8177 1.12108 42.6406L2.68411 41.5416C5.45819 39.5987 7.44765 37.5632 8.26077 35.836L8.86957 34.5236C9.20146 33.8124 10.9939 32.9299 11.7572 33.102L13.091 33.4007C15.0034 33.8205 17.9262 33.4564 21.2556 32.3837L23.2204 31.7544C23.5226 31.6557 23.799 31.6062 24.0139 31.6123C24.2288 31.6184 24.3723 31.6798 24.4259 31.7886C24.4794 31.8974 24.4406 32.0486 24.3144 32.2226C24.1882 32.3967 23.9804 32.5856 23.7179 32.765L22.021 33.9384C19.1399 35.9224 17.0686 38.0168 16.2357 39.7881L15.66 41.0293C15.3304 41.7382 13.538 42.6207 12.7724 42.451L11.36 42.1312C9.49612 41.7223 6.66959 42.0586 3.43838 43.0736Z" fill="url(#paint0_linear_79_11)"/>
<defs>
<linearGradient id="paint0_linear_79_11" x1="62.6508" y1="3.73059" x2="-3.22481" y2="36.1629" gradientUnits="userSpaceOnUse">
<stop stop-color="white"/>
<stop offset="1" stop-color="white"/>
</linearGradient>
</defs>
</svg>
