<svg width="51" height="52" viewBox="0 0 51 52" fill="none" xmlns="http://www.w3.org/2000/svg">
<path d="M24.3165 34.4166L22.2734 39.1047C22.1049 39.5051 21.8219 39.8469 21.46 40.0872C21.0981 40.3275 20.6734 40.4557 20.2389 40.4557C19.8045 40.4557 19.3797 40.3275 19.0178 40.0872C18.6559 39.8469 18.373 39.5051 18.2044 39.1047L16.1614 34.4166C14.3695 30.2764 11.0922 26.9572 6.97509 25.1129L1.34336 22.6152C-0.447785 21.821 -0.447785 19.2143 1.34336 18.4202L6.7979 15.9971C11.0224 14.1058 14.3585 10.6634 16.1165 6.38174L18.1895 1.38832C18.3529 0.978585 18.6354 0.627273 19.0006 0.379783C19.3657 0.132293 19.7967 0 20.2379 0C20.679 0 21.11 0.132293 21.4751 0.379783C21.8403 0.627273 22.1228 0.978585 22.2862 1.38832L24.3613 6.38174C26.1193 10.6634 29.4555 14.1058 33.68 15.9971L39.1345 18.4202C40.9256 19.2143 40.9256 21.821 39.1345 22.6152L33.5028 25.1129C29.3856 26.9572 26.1083 30.2764 24.3165 34.4166ZM43.3316 49.1941L42.7552 50.5113C42.6653 50.7258 42.5139 50.909 42.3202 51.0378C42.1265 51.1667 41.8991 51.2354 41.6664 51.2354C41.4338 51.2354 41.2063 51.1667 41.0126 51.0378C40.8189 50.909 40.6676 50.7258 40.5777 50.5113L40.0012 49.1941C38.9913 46.8586 37.1437 44.9858 34.8221 43.9445L33.0502 43.1588C32.0916 42.7319 32.0916 41.3378 33.0502 40.913L34.7218 40.17C37.1037 39.1022 38.9845 37.1603 39.9756 34.7454L40.567 33.3214C40.6547 33.1018 40.8062 32.9135 41.002 32.7809C41.1978 32.6482 41.4289 32.5773 41.6654 32.5773C41.9019 32.5773 42.1329 32.6482 42.3287 32.7809C42.5245 32.9135 42.676 33.1018 42.7637 33.3214L43.3551 34.7454C44.3448 37.1605 46.225 39.1027 48.6068 40.17L50.2827 40.913C51.2391 41.3378 51.2391 42.7319 50.2827 43.1588L48.5065 43.9445C46.1855 44.9853 44.3391 46.8584 43.3316 49.1941Z" fill="url(#paint0_linear_63_44)"/>
<defs>
<linearGradient id="paint0_linear_63_44" x1="25.5" y1="0" x2="25.5" y2="51.2354" gradientUnits="userSpaceOnUse">
<stop stop-color="#7CFEDE"/>
<stop offset="1" stop-color="white"/>
</linearGradient>
</defs>
</svg>
